<?xml version="1.0" encoding="UTF-8" standalone="no"?>
<svg
   xmlns:dc="http://purl.org/dc/elements/1.1/"
   xmlns:cc="http://creativecommons.org/ns#"
   xmlns:rdf="http://www.w3.org/1999/02/22-rdf-syntax-ns#"
   xmlns:svg="http://www.w3.org/2000/svg"
   xmlns="http://www.w3.org/2000/svg"
   xmlns:sodipodi="http://sodipodi.sourceforge.net/DTD/sodipodi-0.dtd"
   xmlns:inkscape="http://www.inkscape.org/namespaces/inkscape"
   xml:space="preserve"
   width="9.1235218in"
   height="3.1789775in"
   version="1.1"
   style="clip-rule:evenodd;fill-rule:evenodd;image-rendering:optimizeQuality;shape-rendering:geometricPrecision;text-rendering:geometricPrecision"
   viewBox="0 0 10682.167 3722.2501"
   id="svg44"
   sodipodi:docname="tbc-logo-ka_GE.svg"
   inkscape:version="1.0beta2 (2b71d25, 2019-12-03)"><style
   id="style875"></style><metadata
   id="metadata48"><rdf:RDF><cc:Work
       rdf:about=""><dc:format>image/svg+xml</dc:format><dc:type
         rdf:resource="http://purl.org/dc/dcmitype/StillImage" /><dc:title /></cc:Work></rdf:RDF></metadata><sodipodi:namedview
   pagecolor="#ffffff"
   bordercolor="#666666"
   inkscape:document-rotation="0"
   borderopacity="1"
   objecttolerance="10"
   gridtolerance="10"
   guidetolerance="10"
   inkscape:pageopacity="0"
   inkscape:pageshadow="2"
   inkscape:window-width="1280"
   inkscape:window-height="705"
   id="namedview46"
   showgrid="false"
   fit-margin-top="0"
   fit-margin-left="0"
   fit-margin-right="0"
   fit-margin-bottom="0"
   inkscape:zoom="0.73071189"
   inkscape:cx="367.13122"
   inkscape:cy="169.86633"
   inkscape:window-x="0"
   inkscape:window-y="23"
   inkscape:window-maximized="1"
   inkscape:current-layer="svg44" />
 <defs
   id="defs12">
  <style
   type="text/css"
   id="style10">
   <![CDATA[
    .fil0 {fill:#ffffff;fill-rule:nonzero}
    .fil1 {fill:#ffffff;fill-rule:nonzero}
   ]]>
  </style>
 </defs>
 <g
   style="fill:#00a3e0;fill-opacity:1"
   id="Layer_x0020_1"
   transform="translate(431.59018,908.72923)">
  <metadata
   id="CorelCorpID_0Corel-Layer" />
  <path
   style="fill:#00a3e0;fill-opacity:1"
   class="fil0"
   d="m 2851,1090 c 0,-39 -4,-70 -10,-91 -7,-22 -17,-38 -32,-47 -15,-9 -36,-14 -63,-14 -25,0 -45,5 -59,14 -14,9 -24,25 -31,47 -6,21 -9,52 -9,91 v 198 c 0,40 3,70 9,92 7,21 17,37 31,46 14,10 34,14 59,14 27,0 48,-4 63,-14 15,-9 25,-25 32,-46 6,-22 10,-52 10,-92 z m 434,-214 c 38,46 58,114 58,203 v 181 c 0,113 -19,213 -55,300 h -151 c 33,-94 50,-194 50,-300 v -180 c 0,-52 -7,-89 -21,-110 -13,-21 -36,-32 -68,-32 -33,0 -57,11 -71,33 -13,21 -20,58 -20,109 v 209 c 0,94 -22,165 -66,212 -44,47 -109,71 -195,71 -84,0 -148,-24 -192,-72 -43,-47 -65,-118 -65,-211 v -200 c 0,-92 21,-162 63,-210 42,-48 103,-72 184,-72 49,0 90,9 122,28 32,18 55,46 68,81 19,-37 43,-65 74,-83 31,-17 69,-26 116,-26 74,0 130,23 169,69 z"
   id="path15"
   inkscape:connector-curvature="0" />
  <path
   style="fill:#00a3e0;fill-opacity:1"
   class="fil0"
   d="m 3937,878 c 44,48 66,118 66,211 v 171 c 0,113 -18,213 -55,300 h -153 c 33,-94 50,-194 50,-300 v -170 c 0,-39 -3,-70 -10,-91 -6,-22 -16,-38 -30,-47 -14,-9 -34,-14 -59,-14 -26,0 -46,5 -60,14 -14,9 -24,25 -30,47 -7,21 -10,52 -10,91 v 169 c 0,105 17,205 50,301 h -153 c -36,-89 -55,-189 -55,-299 v -172 c 0,-93 22,-163 65,-211 44,-47 108,-71 193,-71 84,0 148,24 191,71 z"
   id="path17"
   inkscape:connector-curvature="0" />
  <path
   style="fill:#00a3e0;fill-opacity:1"
   class="fil0"
   d="m 4464,1416 c 16,-18 25,-48 25,-88 0,-41 -9,-71 -25,-89 -16,-19 -42,-28 -78,-28 -34,0 -59,9 -75,28 -16,18 -24,48 -24,89 0,40 8,70 24,88 17,19 42,28 76,28 35,0 61,-9 77,-28 z m 183,-87 c 0,162 -87,243 -260,243 -172,0 -258,-81 -258,-243 0,-142 65,-223 196,-241 v -41 c 0,-16 -4,-30 -13,-40 -8,-11 -23,-25 -45,-43 -13,-12 -23,-21 -30,-29 -7,-8 -12,-18 -17,-31 -4,-12 -6,-29 -6,-51 v -35 h 160 v 17 c 0,14 3,26 11,35 7,10 19,22 37,36 22,17 37,33 47,50 10,17 14,39 14,67 v 71 c 109,27 164,105 164,235 z"
   id="path19"
   inkscape:connector-curvature="0" />
  <path
   style="fill:#00a3e0;fill-opacity:1"
   class="fil0"
   d="m 5227,878 c 44,48 65,118 65,211 v 171 c 0,113 -18,213 -54,300 h -153 c 33,-94 49,-194 49,-300 v -170 c 0,-39 -3,-70 -9,-91 -6,-22 -16,-38 -30,-47 -15,-9 -34,-14 -60,-14 -25,0 -45,5 -59,14 -14,9 -25,25 -31,47 -6,21 -9,52 -9,91 v 169 c 0,105 16,205 50,301 h -153 c -37,-89 -55,-189 -55,-299 v -172 c 0,-93 22,-163 65,-211 43,-47 107,-71 192,-71 84,0 148,24 192,71 z"
   id="path21"
   inkscape:connector-curvature="0" />
  <path
   style="fill:#00a3e0;fill-opacity:1"
   class="fil0"
   d="m 5438,818 h 158 v 509 c 0,41 9,71 26,89 17,19 45,28 84,28 38,0 66,-9 84,-27 17,-18 25,-48 25,-89 0,-18 -2,-33 -7,-48 -6,-14 -13,-32 -24,-53 -12,-24 -21,-46 -27,-64 -6,-18 -9,-40 -9,-64 v -15 h 158 c 1,20 4,38 9,54 5,15 13,35 24,59 12,28 21,51 26,68 6,18 8,39 8,64 0,162 -89,243 -267,243 -179,0 -268,-82 -268,-244 z"
   id="path23"
   inkscape:connector-curvature="0" />
  <path
   style="fill:#00a3e0;fill-opacity:1"
   class="fil0"
   d="m 6547,878 c 44,48 66,118 66,211 v 171 c 0,113 -18,213 -55,300 h -153 c 34,-94 50,-194 50,-300 v -170 c 0,-39 -3,-70 -9,-91 -6,-22 -17,-38 -31,-47 -14,-9 -34,-14 -59,-14 -26,0 -45,5 -60,14 -14,9 -24,25 -30,47 -6,21 -9,52 -9,91 v 169 c 0,105 16,205 49,301 h -153 c -36,-89 -54,-189 -54,-299 v -172 c 0,-93 21,-163 65,-211 43,-47 107,-71 192,-71 84,0 148,24 191,71 z"
   id="path25"
   inkscape:connector-curvature="0" />
  <path
   style="fill:#00a3e0;fill-opacity:1"
   class="fil0"
   d="m 7323,1467 c 24,-27 36,-71 36,-134 0,-64 -12,-110 -36,-137 -24,-26 -63,-40 -116,-40 -52,0 -90,14 -114,40 -24,27 -36,73 -36,137 0,63 13,107 37,134 24,27 62,40 114,40 53,0 91,-13 115,-40 z m 71,-295 c 31,42 47,96 47,162 0,77 -20,137 -61,180 -40,42 -97,64 -172,64 -43,0 -82,-10 -118,-30 -35,-19 -63,-48 -84,-84 -20,-37 -30,-81 -30,-130 0,-48 9,-90 27,-126 18,-36 43,-64 75,-85 32,-21 68,-33 108,-36 v -64 c 0,-21 -5,-38 -14,-50 -9,-13 -23,-25 -41,-35 -19,-11 -33,-24 -42,-40 -9,-16 -14,-33 -14,-52 v -34 h 82 v 22 c 0,14 3,26 10,35 7,10 19,19 36,30 21,13 38,28 48,46 11,17 16,41 16,69 v 78 c 54,11 96,38 127,80 z"
   id="path27"
   inkscape:connector-curvature="0" />
  <path
   style="fill:#00a3e0;fill-opacity:1"
   class="fil0"
   d="m 7828,812 v 30 c 0,30 3,55 8,74 4,20 12,38 23,56 11,17 29,41 53,71 28,36 49,65 64,87 14,22 25,50 34,83 9,33 14,74 14,124 0,50 -10,93 -30,130 -19,36 -47,63 -81,82 -35,19 -75,29 -120,29 -69,0 -125,-21 -167,-63 -41,-42 -62,-100 -62,-174 0,-69 17,-128 51,-178 l 66,24 c -11,21 -19,43 -26,66 -6,24 -10,53 -10,87 0,61 12,104 35,129 23,26 61,38 113,38 53,0 91,-13 114,-39 23,-26 35,-71 35,-135 0,-41 -3,-74 -10,-100 -6,-27 -16,-49 -27,-68 -12,-19 -31,-45 -56,-77 -27,-34 -47,-62 -60,-84 -14,-23 -24,-46 -30,-71 -7,-25 -10,-54 -10,-89 v -32 z"
   id="path29"
   inkscape:connector-curvature="0" />
  <path
   style="fill:#00a3e0;fill-opacity:1"
   class="fil0"
   d="m 8515,1467 c 25,-27 37,-71 37,-134 0,-62 -13,-107 -40,-134 -26,-26 -64,-40 -115,-40 -29,0 -55,5 -80,14 -26,9 -48,23 -67,40 v 120 c 0,63 12,107 36,134 24,27 62,40 115,40 52,0 90,-13 114,-40 z m 8,-352 c 34,19 60,46 80,83 20,38 30,83 30,136 0,80 -21,140 -62,182 -42,41 -99,62 -170,62 -70,0 -126,-21 -168,-61 -42,-41 -63,-99 -63,-175 v -338 c 0,-58 19,-105 57,-140 37,-35 87,-52 149,-52 h 210 v 73 h -200 c -49,0 -84,10 -105,29 -21,20 -31,52 -31,96 v 142 c 19,-21 43,-37 71,-48 28,-11 59,-17 91,-17 41,1 78,10 111,28 z"
   id="path31"
   inkscape:connector-curvature="0" />
  <path
   style="fill:#00a3e0;fill-opacity:1"
   class="fil0"
   d="m 8787,1258 73,17 c -13,32 -19,64 -19,96 0,91 49,136 148,136 55,0 93,-12 115,-37 23,-25 34,-69 34,-130 0,-61 -12,-105 -36,-134 -23,-29 -62,-44 -115,-44 h -44 v -70 h 57 c 45,0 76,-12 94,-35 17,-24 26,-55 26,-94 0,-25 -4,-49 -12,-72 -9,-23 -21,-49 -39,-79 h 78 c 35,50 53,103 53,157 0,40 -12,75 -34,105 -22,30 -58,48 -107,55 57,6 97,29 123,69 25,41 37,90 37,146 0,76 -20,134 -61,174 -40,40 -97,60 -169,60 -44,0 -84,-9 -119,-26 -34,-16 -62,-40 -81,-71 -20,-31 -30,-68 -30,-109 0,-44 10,-82 28,-114 z"
   id="path33"
   inkscape:connector-curvature="0" />
  <path
   style="fill:#00a3e0;fill-opacity:1"
   class="fil0"
   d="m 9760,868 c 39,44 59,110 59,199 v 135 c 0,77 -7,147 -19,209 -12,62 -29,114 -53,155 h -79 c 48,-82 72,-204 72,-365 v -129 c 0,-51 -5,-91 -14,-119 -9,-29 -24,-49 -45,-61 -21,-12 -51,-18 -88,-18 -37,0 -66,6 -87,18 -21,12 -36,32 -46,61 -9,28 -14,68 -14,119 v 129 c 0,75 8,145 22,210 14,64 31,116 51,155 h -82 c -19,-38 -36,-90 -50,-156 -14,-67 -21,-136 -21,-208 v -136 c 0,-89 20,-155 59,-199 39,-43 95,-65 168,-65 73,0 128,22 167,66 z"
   id="path35"
   inkscape:connector-curvature="0" />
  <path
   style="fill:#00a3e0;fill-opacity:1"
   class="fil1"
   d="m 946,1055 c 9,90 14,136 -59,213 -76,80 -266,227 -460,339 -82,48 -193,105 -277,135 -62,23 -114,32 -140,-13 -17,-29 -9,-56 0,-79 68,-183 262,-526 389,-748 13,-23 27,-46 40,-70 C 635,495 894,82 945,16 952,6 966,-5 978,2 c 10,6 10,18 9,27 0,1 -3,13 -5,18 -83,341 -74,675 -36,1008 z"
   id="path37"
   inkscape:connector-curvature="0" />
  <path
   style="fill:#00a3e0;fill-opacity:1"
   class="fil1"
   d="m 1232,1160 c -82,-38 -125,-57 -155,-159 -31,-105 -64,-343 -64,-568 0,-94 6,-218 21,-306 12,-66 30,-116 82,-116 34,0 53,21 69,40 125,150 323,490 453,712 13,22 26,45 40,69 194,338 422,769 454,846 5,11 8,28 -5,36 -10,5 -20,-1 -27,-6 -1,-1 -10,-10 -13,-13 -254,-243 -547,-402 -855,-535 z"
   id="path39"
   inkscape:connector-curvature="0" />
  <path
   style="fill:#00a3e0;fill-opacity:1"
   class="fil1"
   d="m 998,1354 c 74,-52 112,-79 215,-55 106,26 329,117 524,229 81,47 186,115 255,172 50,43 85,83 59,128 -17,29 -44,36 -69,40 -193,33 -587,35 -843,37 -26,0 -53,0 -80,0 -390,-1 -877,-19 -960,-30 -12,-1 -28,-7 -28,-22 0,-11 10,-18 18,-21 2,0 14,-4 18,-5 337,-98 622,-272 891,-473 z"
   id="path41"
   inkscape:connector-curvature="0" />
 </g>
</svg>
